<?xml version="1.0" encoding="utf-8"?>
<!-- Generator: Adobe Illustrator 15.1.0, SVG Export Plug-In . SVG Version: 6.00 Build 0)  -->
<!DOCTYPE svg PUBLIC "-//W3C//DTD SVG 1.1//EN" "http://www.w3.org/Graphics/SVG/1.1/DTD/svg11.dtd">
<svg version="1.1" id="Calque_1" xmlns="http://www.w3.org/2000/svg" xmlns:xlink="http://www.w3.org/1999/xlink" x="0px" y="0px"
	 width="150px" height="150px" viewBox="0 0 150 150" enable-background="new 0 0 150 150" xml:space="preserve">
<rect fill="#EFEFEF" width="150" height="150"/>
<g>
	<path fill="#909193" d="M62.082,62.481c4.209-3.448,3.97-8.951,0.204-12.508c-5.143-4.856-13.473-2.352-17.625,2.592
		c-4.338,5.166-3.788,15.487,1.287,20.025c2.464,2.201,5.846,2.456,8.948,1.518c4.92-1.486,7.284-5.014,9.104-9.551"/>
	<path fill="#666666" d="M54.627,54.043c-8.297,0.994-8.927,14.979-1.45,17.661c0.33,0.117,1.086-0.358,0.553-0.55
		c-6.438-2.31-6.738-15.633,0.787-16.534C54.992,54.563,55.265,53.967,54.627,54.043L54.627,54.043z"/>
	<path fill="#BCBCBC" d="M99.36,48.431c-5.175-1.347-12.327,0.485-15.824,4.192c-1.088,1.156-1.864,2.489-2.128,3.924
		c-3.104-1.063-7.117-0.653-10.214-0.617c-7.529,0.087-13.199,4.43-17.46,10.342c-4.814,6.679-7.238,14.192-9.104,22.086
		c-0.66,2.799-4.03,9.48-1.083,11.557c3.237,2.282,8.992,1.225,12.663,1.074c6.54-0.268,13.066-1.042,19.454-2.6
		c5.618-1.369,12.842-3.379,16.937-7.742c3.038-3.236,3.553-8.23,3.357-12.467c-0.018-0.342-0.045-0.687-0.08-1.033
		c4.112,0.52,8.359-1.3,11.029-4.187C114.014,65.273,110.337,51.288,99.36,48.431z"/>
	<path fill="#F5F5F5" d="M86.21,88.846c-2.636-6.951-13.423-1.918-13.662,4.194c4.555-0.479,9.229-2.757,13.542-4.075"/>
	<path fill="#DF7D6F" d="M41.877,94.984c-4.779,1.518-1.844,9.69,3.024,7.186C49.273,99.92,44.983,94.273,41.877,94.984"/>
	<g>
		<path fill="#131A30" d="M63.247,72.729c-0.218-0.22-0.458-0.317-0.773-0.298c-0.271,0.019-0.739,0.135-0.945,0.347
			C61.319,72.909,61,73.09,61,73.305c0,0.147,0,0.295,0,0.442c0,0.139,0.184,0.252,0.249,0.345c0.046,0.252,0.217,0.493,0.396,0.702
			c0.445,0.518,1.502,0.333,1.772-0.293c0.097-0.227,0.166-0.481,0.166-0.734C63.604,73.388,63.521,73.007,63.247,72.729z"/>
		<path fill="#131A30" d="M80.505,72.015c-0.065-0.334-0.477-0.449-0.776-0.449c-0.206-0.063-0.424-0.063-0.644-0.005
			c-0.261,0.069-0.621,0.258-0.715,0.538c-0.004,0.016-0.007,0.031-0.011,0.048c-0.368,0.582-0.139,1.41,0.294,1.904
			c0.268,0.308,0.757,0.354,1.157,0.205c0.338-0.073,0.648-0.264,0.737-0.552C80.729,73.113,80.619,72.605,80.505,72.015z"/>
	</g>
	<path fill="#131A30" d="M87.135,88.597c-2.101-4.943-7.897-4.204-11.785-1.257c-0.271,0.108-0.477,0.249-0.488,0.395
		c-1.783,1.504-3.071,3.484-3.239,5.553c-0.021,0.25,0.675,0.161,0.769,0.15c2.853-0.364,5.554-1.236,8.236-2.188
		c0.235-0.041,0.479-0.126,0.664-0.237c1.624-0.582,3.245-1.183,4.892-1.703c0.208-0.065,0.367-0.145,0.483-0.228
		C86.979,88.941,87.203,88.757,87.135,88.597z M85.185,88.887c-0.271,0.09-0.542,0.183-0.811,0.275
		c-0.087-0.695-0.262-1.368-0.445-2.041C84.416,87.563,84.842,88.146,85.185,88.887z M81.688,86.056c0,0.014-0.003,0.027,0,0.042
		c0.257,1.205,0.691,2.367,0.839,3.596c0.006,0.043,0.022,0.08,0.045,0.112c-0.345,0.126-0.688,0.251-1.031,0.376
		c-0.334-1.398-0.705-2.788-1.118-4.166C80.852,85.978,81.275,85.991,81.688,86.056z M77.932,91.43
		c-0.445-1.303-0.91-2.602-1.178-3.954c0.569-0.411,1.179-0.752,1.808-1.001c0.431,1.439,0.819,2.893,1.165,4.357
		C79.13,91.039,78.531,91.24,77.932,91.43z M75.135,88.982c0.27,1.009,0.621,1.994,0.959,2.984
		c-0.853,0.225-1.712,0.414-2.585,0.558C73.674,91.24,74.274,90.016,75.135,88.982z"/>
	<path fill="#909193" d="M99.315,60.237c-2.388-3.725-7.214-4.147-10.6-1.666c-0.423,0.31,0.508,0.319,0.741,0.148
		c3.35-2.455,7.447-0.893,9.373,2.498c1.687,2.975,0.453,5.776-1.854,7.606c-0.004-0.004-0.007-0.006-0.011-0.01
		c-1.489-0.876-1.735-3.632-1.346-5.117c0.082-0.318-0.845-0.177-0.925,0.124c-0.439,1.681-0.112,4.461,1.531,5.428
		c0.031,0.019,0.074,0.028,0.122,0.032c-0.48,0.321-0.995,0.604-1.533,0.841c-0.59,0.262-0.047,0.558,0.365,0.375
		C99.451,68.609,102.118,64.615,99.315,60.237z"/>
	<path fill="#909193" d="M61.39,77.49c0.691-0.7,1.305-1.47,1.918-2.236c0.135-0.169-0.114-0.223-0.237-0.219
		c-0.202,0.005-0.481,0.072-0.614,0.238c-0.614,0.768-1.227,1.536-1.919,2.236c-0.156,0.16,0.137,0.221,0.238,0.219
		C60.993,77.725,61.233,77.648,61.39,77.49L61.39,77.49z"/>
	<path fill="#909193" d="M80.725,76.351c-0.67-0.662-1.406-1.254-2.076-1.918c-0.26-0.256-1.139,0.103-0.855,0.383
		c0.671,0.663,1.407,1.255,2.076,1.917C80.13,76.99,81.008,76.632,80.725,76.351L80.725,76.351z"/>
</g>
</svg>
